<svg xmlns="http://www.w3.org/2000/svg" width="167.729" height="18" viewBox="0 0 167.729 18"><defs><style>.a{fill:#818181;}.b{fill:#f4f4f4;}</style></defs><g transform="translate(-1138 -4463)"><path class="a" d="M15.613,17.748h1.968v8.129a.293.293,0,0,0,.293.293h3.339a.293.293,0,0,0,.293-.293V17.785h2.266a.293.293,0,0,0,.288-.256l.34-2.989a.293.293,0,0,0-.068-.225.3.3,0,0,0-.22-.1H21.5V12.347c0-.565.3-.853.9-.853H24.1a.293.293,0,0,0,.293-.288V8.463A.293.293,0,0,0,24.1,8.17h-2.46A4.5,4.5,0,0,0,18.7,9.28a3.088,3.088,0,0,0-1.047,2.748v2.188H15.613a.293.293,0,0,0-.293.293v2.947A.293.293,0,0,0,15.613,17.748Zm0,0" transform="translate(1122.68 4454.83)"/><g transform="translate(1166 4463.019)"><path class="a" d="M12.643,11.3m5.315-1.983c-2.442,0-2.75,0-3.713.056a6.614,6.614,0,0,0-2.184.42,4.626,4.626,0,0,0-2.632,2.627,6.816,6.816,0,0,0-.459,2.19c0,.958-.039,1.243-.039,3.708s.039,2.75.039,3.7A6.777,6.777,0,0,0,9.384,24.2a4.447,4.447,0,0,0,1.042,1.591,4.374,4.374,0,0,0,1.591,1.042,6.625,6.625,0,0,0,2.184.414c.963.045,1.271.056,3.713.056s2.75,0,3.713-.056a6.626,6.626,0,0,0,2.184-.414A4.66,4.66,0,0,0,26.443,24.2a6.777,6.777,0,0,0,.448-2.184c.045-.963.056-1.266.056-3.713s0-2.75-.056-3.708a6.816,6.816,0,0,0-.414-2.19,4.374,4.374,0,0,0-1.058-1.591,4.43,4.43,0,0,0-1.591-1.036,6.614,6.614,0,0,0-2.184-.42C20.68,9.311,20.372,9.3,17.93,9.3" transform="translate(-8.93 -9.318)"/><path class="b" d="M21.37,17.15a4.62,4.62,0,1,0,4.62,4.62,4.62,4.62,0,0,0-4.62-4.62m0,7.622a3,3,0,1,1,3-3,3,3,0,0,1-3,3" transform="translate(-12.37 -12.772)"/><path class="b" d="M33.812,15.971a1.081,1.081,0,1,1-1.081-1.081,1.081,1.081,0,0,1,1.081,1.081" transform="translate(-18.926 -11.778)"/></g><g transform="translate(1239 4463)"><g transform="translate(0 0)"><path class="a" d="M15.67,31.757a12.81,12.81,0,0,0,12.9-12.87V18.3a9.307,9.307,0,0,0,2.215-2.344,9.063,9.063,0,0,1-2.608.677,4.565,4.565,0,0,0,2.032-2.506,9.232,9.232,0,0,1-2.886,1.1,4.538,4.538,0,0,0-7.878,3.1,4.742,4.742,0,0,0,.115,1.016A12.87,12.87,0,0,1,10.252,14.6a4.552,4.552,0,0,0,1.355,6.1,4.389,4.389,0,0,1-2.032-.569.19.19,0,0,0,0,.061,4.538,4.538,0,0,0,3.637,4.444,4.328,4.328,0,0,1-1.2.129,4.443,4.443,0,0,1-.853-.081,4.545,4.545,0,0,0,4.24,3.15,9.138,9.138,0,0,1-5.636,1.937A9.6,9.6,0,0,1,8.68,29.7a12.87,12.87,0,0,0,6.957,2.032" transform="translate(-8.68 -13.757)"/></g></g><path class="a" d="M23.9,7.15H8.566a1.311,1.311,0,0,0-1.326,1.3v15.4a1.316,1.316,0,0,0,1.326,1.3H23.9a1.316,1.316,0,0,0,1.331-1.3V8.446A1.311,1.311,0,0,0,23.9,7.15ZM12.574,22.487H9.907V13.916h2.667Zm-1.331-9.761a1.548,1.548,0,1,1,1.543-1.548,1.548,1.548,0,0,1-1.543,1.548Zm11.329,9.761H19.905V18.313c0-1.008,0-2.279-1.387-2.279s-1.6,1.084-1.6,2.2v4.25H14.248V13.916H16.81v1.175h.035A2.808,2.808,0,0,1,19.366,13.7c2.7,0,3.2,1.78,3.2,4.094Z" transform="translate(1194.76 4455.851)"/><path class="a" d="M32.177,16.75A3.228,3.228,0,0,0,29.9,14.478c-2-.538-10.044-.538-10.044-.538s-8.034,0-10.044.538A3.228,3.228,0,0,0,7.538,16.75,33.45,33.45,0,0,0,7,22.944a33.388,33.388,0,0,0,.538,6.186A3.206,3.206,0,0,0,9.831,31.4c2.01.538,10.044.538,10.044.538s8.041,0,10.044-.538A3.249,3.249,0,0,0,32.2,29.13a33.822,33.822,0,0,0,.531-6.186A34.573,34.573,0,0,0,32.177,16.75ZM17.313,26.794V19.086l6.675,3.858Z" transform="translate(1273 4449.06)"/></g></svg>